<?xml version="1.0" encoding="UTF-8"?>
<svg id="Layer_2" data-name="Layer 2" xmlns="http://www.w3.org/2000/svg" viewBox="0 0 490.47 469.42">
  <defs>
    <style>
      .cls-1 {
        stroke-width: 0px;
      }
    </style>
  </defs>
  <g id="Layer_1-2" data-name="Layer 1">
    <path class="cls-1" d="m0,230.81c3.72-9.18,10.59-12.35,20.35-12.33,86.2.2,172.4.12,258.6.12,2.04,0,4.08,0,7.38,0-1.86-2-2.95-3.23-4.1-4.39-17.6-17.62-35.2-35.24-52.83-52.82-4.84-4.83-6.63-10.49-4.57-17.03,1.95-6.19,6.45-9.8,12.78-10.86,6.03-1.01,10.8,1.56,14.98,5.75,24.13,24.18,48.3,48.32,72.47,72.47,3.61,3.61,7.29,7.16,10.91,10.76,7.25,7.23,7.29,17.04.08,24.23-27.8,27.73-55.63,55.44-83.39,83.21-4.06,4.06-8.63,6.68-14.47,5.91-6.35-.84-10.98-4.27-13.16-10.4-2.23-6.27-1-12.03,3.66-16.79,8.6-8.78,17.35-17.42,26.05-26.1,10.25-10.25,20.52-20.48,31.89-31.83-3.12,0-4.91,0-6.7,0-86.52,0-173.04-.08-259.56.12-9.76.02-16.63-3.17-20.36-12.33v-7.67Z"/>
    <path class="cls-1" d="m247.17,0c121.76-.38,220.25,82.25,239.74,193.74,21.85,124.96-59.06,244.58-183.06,270.64-111.38,23.41-223.33-36.6-265.62-142.38-3.77-9.43-.5-18.49,7.96-22.09,8.65-3.67,17.69.42,21.65,10.03,20.99,50.88,56.25,88.24,106.7,110.34,113.04,49.53,243.43-12.79,276.7-131.8,31.88-114.02-42.83-232.8-159.24-253.2-95.29-16.69-186.18,33.05-223.42,122.39-2.69,6.45-6.28,11.56-13.58,12.7-12.7,1.97-21.93-10.06-17.06-22.33,12.3-30.98,30.15-58.37,54.14-81.53C137.75,22.43,192.72.95,247.17,0Z"/>
  </g>
</svg>